<svg xmlns="http://www.w3.org/2000/svg" xmlns:xlink="http://www.w3.org/1999/xlink" width="390" height="211" version="1.1" viewBox="0 0 390 211"><title>Group 5</title><desc>Created with Sketch.</desc><defs><linearGradient id="linearGradient-1" x1="50%" x2="50%" y1="58.988%" y2="100%"><stop offset="0%" stop-color="#FFF"/><stop offset="100%" stop-color="#FFF" stop-opacity="0"/></linearGradient><rect id="path-2" width="17.2" height="6" x="3.6" y="10"/><mask id="mask-3" width="17.2" height="6" x="0" y="0" fill="#fff" maskContentUnits="userSpaceOnUse" maskUnits="objectBoundingBox"><use xlink:href="#path-2"/></mask><circle id="path-4" cx="18.2" cy="6.2" r="3.4"/><mask id="mask-5" width="6.8" height="6.8" x="0" y="0" fill="#fff" maskContentUnits="userSpaceOnUse" maskUnits="objectBoundingBox"><use xlink:href="#path-4"/></mask><ellipse id="path-6" cx="20.6" cy="10.6" rx="5.4" ry="5.4"/><mask id="mask-7" width="10.8" height="10.8" x="0" y="0" fill="#fff" maskContentUnits="userSpaceOnUse" maskUnits="objectBoundingBox"><use xlink:href="#path-6"/></mask><ellipse id="path-8" cx="3.4" cy="12.6" rx="3.4" ry="3.4"/><mask id="mask-9" width="6.8" height="6.8" x="0" y="0" fill="#fff" maskContentUnits="userSpaceOnUse" maskUnits="objectBoundingBox"><use xlink:href="#path-8"/></mask><circle id="path-10" cx="7.2" cy="8.4" r="4.4"/><mask id="mask-11" width="8.8" height="8.8" x="0" y="0" fill="#fff" maskContentUnits="userSpaceOnUse" maskUnits="objectBoundingBox"><use xlink:href="#path-10"/></mask><ellipse id="path-12" cx="12.6" cy="5.4" rx="5.4" ry="5.4"/><mask id="mask-13" width="10.8" height="10.8" x="0" y="0" fill="#fff" maskContentUnits="userSpaceOnUse" maskUnits="objectBoundingBox"><use xlink:href="#path-12"/></mask><rect id="path-14" width="12.569" height="4.308" x="2.631" y="7.18"/><mask id="mask-15" width="12.569" height="4.308" x="0" y="0" fill="#fff" maskContentUnits="userSpaceOnUse" maskUnits="objectBoundingBox"><use xlink:href="#path-14"/></mask><ellipse id="path-16" cx="13.3" cy="4.452" rx="2.485" ry="2.441"/><mask id="mask-17" width="4.969" height="4.883" x="0" y="0" fill="#fff" maskContentUnits="userSpaceOnUse" maskUnits="objectBoundingBox"><use xlink:href="#path-16"/></mask><ellipse id="path-18" cx="15.054" cy="7.611" rx="3.946" ry="3.877"/><mask id="mask-19" width="7.892" height="7.755" x="0" y="0" fill="#fff" maskContentUnits="userSpaceOnUse" maskUnits="objectBoundingBox"><use xlink:href="#path-18"/></mask><ellipse id="path-20" cx="2.485" cy="9.047" rx="2.485" ry="2.441"/><mask id="mask-21" width="4.969" height="4.883" x="0" y="0" fill="#fff" maskContentUnits="userSpaceOnUse" maskUnits="objectBoundingBox"><use xlink:href="#path-20"/></mask><ellipse id="path-22" cx="5.262" cy="6.031" rx="3.215" ry="3.159"/><mask id="mask-23" width="6.431" height="6.319" x="0" y="0" fill="#fff" maskContentUnits="userSpaceOnUse" maskUnits="objectBoundingBox"><use xlink:href="#path-22"/></mask><ellipse id="path-24" cx="9.208" cy="3.877" rx="3.946" ry="3.877"/><mask id="mask-25" width="7.892" height="7.755" x="0" y="0" fill="#fff" maskContentUnits="userSpaceOnUse" maskUnits="objectBoundingBox"><use xlink:href="#path-24"/></mask></defs><g id="Landing" fill="none" fill-rule="evenodd" stroke="none" stroke-width="1"><g id="Slide-3"><g transform="translate(-640.000000, -2657.000000) translate(214.000000, 1400.000000)"><g id="Group-5" transform="translate(426.000000, 1181.000000)"><g id="Graph" transform="translate(5.000000, 51.000000)"><path id="Line" stroke="#000" stroke-opacity=".2" d="M21,206.5 L369,206.5"/><path id="Line" stroke="#000" stroke-opacity=".1" d="M21,191.5 L369,191.5"/><path id="Line" stroke="#000" stroke-opacity=".1" d="M21,176.5 L369,176.5"/><path id="Line" stroke="#000" stroke-opacity=".1" d="M21,161.5 L369,161.5"/><path id="Line" stroke="#000" stroke-opacity=".1" d="M21,146.5 L369,146.5"/><path id="Line" stroke="#000" stroke-opacity=".1" d="M21,131.5 L369,131.5"/><path id="Line" stroke="#000" stroke-opacity=".1" d="M21,116.5 L369,116.5"/><path id="Line" stroke="#000" stroke-opacity=".1" d="M21,101.5 L369,101.5"/><path id="Line" stroke="#000" stroke-opacity=".1" d="M21,86.5 L369,86.5"/><path id="Line" stroke="#000" stroke-opacity=".1" d="M21,71.5 L369,71.5"/><path id="Line" stroke="#000" stroke-opacity=".1" d="M21,56.5 L369,56.5"/><text id="1K" fill="#9E9E9E" font-family="Stem Text" font-size="13" font-weight="normal" line-spacing="16"><tspan x="30" y="229">1K</tspan></text><g id="Group-3" stroke="#000" stroke-linecap="square" stroke-opacity=".05" transform="translate(36.000000, 47.000000)"><path id="Line" d="M1.5,170.5 L1.5,0.497058849"/><path id="Line" d="M316.5,170.5 L316.5,0.497058849"/><path id="Line" d="M281.5,170.5 L281.5,0.497058849"/><path id="Line" d="M246.5,170.5 L246.5,0.497058849"/><path id="Line" d="M211.5,170.5 L211.5,0.497058849"/><path id="Line" d="M176.5,170.5 L176.5,0.497058849"/><path id="Line" d="M141.5,170.5 L141.5,0.497058849"/><path id="Line" d="M106.5,170.5 L106.5,0.497058849"/><path id="Line" d="M71.5,170.5 L71.5,0.497058849"/><path id="Line" d="M36.5,170.5 L36.5,0.497058849"/></g><text id="0" fill="#9E9E9E" font-family="Stem Text" font-size="11" font-weight="normal" line-spacing="16"><tspan x="4.52" y="209">0</tspan></text><text id="1" fill="#9E9E9E" font-family="Stem Text" font-size="11" font-weight="normal" line-spacing="16"><tspan x="7.655" y="194">1</tspan></text><text id="2" fill="#9E9E9E" font-family="Stem Text" font-size="11" font-weight="normal" line-spacing="16"><tspan x="5.268" y="179">2</tspan></text><text id="3" fill="#9E9E9E" font-family="Stem Text" font-size="11" font-weight="normal" line-spacing="16"><tspan x="5.213" y="164">3</tspan></text><text id="4" fill="#9E9E9E" font-family="Stem Text" font-size="11" font-weight="normal" line-spacing="16"><tspan x="4.608" y="149">4</tspan></text><text id="5" fill="#9E9E9E" font-family="Stem Text" font-size="11" font-weight="normal" line-spacing="16"><tspan x="5.081" y="134">5</tspan></text><text id="6" fill="#9E9E9E" font-family="Stem Text" font-size="11" font-weight="normal" line-spacing="16"><tspan x="4.685" y="119">6</tspan></text><text id="7" fill="#9E9E9E" font-family="Stem Text" font-size="11" font-weight="normal" line-spacing="16"><tspan x="5.719" y="104">7</tspan></text><text id="8" fill="#9E9E9E" font-family="Stem Text" font-size="11" font-weight="normal" line-spacing="16"><tspan x="4.663" y="89">8</tspan></text><text id="9" fill="#9E9E9E" font-family="Stem Text" font-size="11" font-weight="normal" line-spacing="16"><tspan x="4.663" y="74">9</tspan></text><text id="10" fill="#9E9E9E" font-family="Stem Text" font-size="11" font-weight="normal" line-spacing="16"><tspan x=".175" y="59">10</tspan></text><text id="2K" fill="#9E9E9E" font-family="Stem Text" font-size="13" font-weight="normal" line-spacing="16"><tspan x="64" y="229">2K</tspan></text><text id="3K" fill="#9E9E9E" font-family="Stem Text" font-size="13" font-weight="normal" line-spacing="16"><tspan x="100" y="229">3K</tspan></text><text id="4K" fill="#9E9E9E" font-family="Stem Text" font-size="13" font-weight="normal" line-spacing="16"><tspan x="134" y="229">4K</tspan></text><text id="5K" fill="#9E9E9E" font-family="Stem Text" font-size="13" font-weight="normal" line-spacing="16"><tspan x="169" y="229">5K</tspan></text><text id="6K" fill="#9E9E9E" font-family="Stem Text" font-size="13" font-weight="normal" line-spacing="16"><tspan x="204" y="229">6K</tspan></text><text id="7K" fill="#9E9E9E" font-family="Stem Text" font-size="13" font-weight="normal" line-spacing="16"><tspan x="239" y="229">7K</tspan></text><text id="8K" fill="#9E9E9E" font-family="Stem Text" font-size="13" font-weight="normal" line-spacing="16"><tspan x="274" y="229">8K</tspan></text><text id="9K" fill="#9E9E9E" font-family="Stem Text" font-size="13" font-weight="normal" line-spacing="16"><tspan x="309" y="229">9K</tspan></text><text id="10K" fill="#9E9E9E" font-family="Stem Text" font-size="13" font-weight="normal" line-spacing="16"><tspan x="341.5" y="229">10K</tspan></text><polyline id="Path-2" stroke="#7ED321" stroke-linecap="round" stroke-width="2" points="37.5 204 72.5 202 107.5 198 142.5 196 177.5 194 212.5 193 247.5 192 282.5 191 317.5 188 352.5 187"/><polyline id="Path-2" stroke="#F64242" stroke-linecap="round" stroke-width="2" points="37.5 203 72.5 198 107.5 197 142.5 196 177.5 193 212.5 192 247.5 192 282.5 191 317.5 188 352.5 187"/><polyline id="Path-2" stroke="#F6A623" stroke-linecap="round" stroke-width="2" points="37.5 187 72.5 169 107.5 158 142.5 151 177.5 134 212.5 118 247.5 104 282.5 95 317.5 79 352.5 46 380.866 1.375"/><rect id="Rectangle-6" width="54" height="56" x="331" y="0" fill="url(#linearGradient-1)"/><g id="Group" fill="#FFF" transform="translate(324.000000, 27.000000)"><use id="Rectangle-2" stroke="#CFE6FF" stroke-width="2" mask="url(#mask-3)" xlink:href="#path-2"/><use id="Oval" stroke="#CFE6FF" stroke-width="2" mask="url(#mask-5)" xlink:href="#path-4"/><use id="Oval" stroke="#CFE6FF" stroke-width="2" mask="url(#mask-7)" xlink:href="#path-6"/><use id="Oval" stroke="#CFE6FF" stroke-width="2" mask="url(#mask-9)" xlink:href="#path-8"/><polygon id="Rectangle-2" points="3.6 9.6 19.426 4.967 20.8 15 3.6 15"/><use id="Oval" stroke="#CFE6FF" stroke-width="2" mask="url(#mask-11)" xlink:href="#path-10"/><use id="Oval" stroke="#CFE6FF" stroke-width="2" mask="url(#mask-13)" xlink:href="#path-12"/><polygon id="Rectangle-3" points="7.2 6.8 18.314 4.563 20.4 13.6 3.288 12.811"/></g><g id="Group" fill="#FFF" transform="translate(367.500000, 43.500000) scale(-1, 1) translate(-367.500000, -43.500000) translate(358.000000, 37.500000)"><use id="Rectangle-2" stroke="#CFE6FF" stroke-width="2" mask="url(#mask-15)" xlink:href="#path-14"/><use id="Oval" stroke="#CFE6FF" stroke-width="2" mask="url(#mask-17)" xlink:href="#path-16"/><use id="Oval" stroke="#CFE6FF" stroke-width="2" mask="url(#mask-19)" xlink:href="#path-18"/><use id="Oval" stroke="#CFE6FF" stroke-width="2" mask="url(#mask-21)" xlink:href="#path-20"/><polygon id="Rectangle-2" points="2.631 6.893 14.196 3.566 15.2 10.5 2.631 10.5"/><use id="Oval" stroke="#CFE6FF" stroke-width="2" mask="url(#mask-23)" xlink:href="#path-22"/><use id="Oval" stroke="#CFE6FF" stroke-width="2" mask="url(#mask-25)" xlink:href="#path-24"/><polygon id="Rectangle-3" points="5.703 4.883 13.825 3.276 15.35 9.765 2.845 9.199"/></g></g></g></g></g></g></svg>